<svg version="1.1" xmlns="http://www.w3.org/2000/svg" xmlns:xlink="http://www.w3.org/1999/xlink" width="683" height="1372"><defs/><g><g transform="translate(-6,-6) scale(1,1)"><path fill="#C0C0C0" stroke="none" d="M 447 39 C 447 30.1634432 454.1634432 23 463 23 C 471.8365568 23 479 30.1634432 479 39 C 479 47.8365568 471.8365568 55 463 55 C 454.1634432 55 447 47.8365568 447 39 Z" opacity="0.2"/></g><g transform="translate(-6,-6) scale(1,1)"><path fill="#000000" stroke="none" d="M 440 32 C 440 23.1634432 447.1634432 16 456 16 C 464.8365568 16 472 23.1634432 472 32 C 472 40.8365568 464.8365568 48 456 48 C 447.1634432 48 440 40.8365568 440 32 Z"/></g><g transform="translate(-6,-6) scale(1,1)"><path fill="#C0C0C0" stroke="none" d="M 401 95 L 533 95 Q 543 95 543 105 L 543 125 Q 543 135 533 135 L 401 135 Q 391 135 391 125 L 391 105 Q 391 95 401 95 Z" opacity="0.2"/></g><g transform="translate(-6,-6) scale(1,1)"><path fill="#ffffff" stroke="none" d="M 394 88 L 526 88 Q 536 88 536 98 L 536 118 Q 536 128 526 128 L 394 128 Q 384 128 384 118 L 384 98 Q 384 88 394 88 Z"/></g><g transform="translate(-6,-6) scale(1,1)"><path fill="none" stroke="#000000" d="M 394 88 L 526 88 Q 536 88 536 98 L 536 118 Q 536 128 526 128 L 394 128 Q 384 128 384 118 L 384 98 Q 384 88 394 88 Z" stroke-miterlimit="10"/></g><g transform="translate(-6,-6) scale(1,1)"><g><path fill="none" stroke="none"/><text fill="#000000" stroke="none" font-family="Arial" font-size="13px" font-style="normal" font-weight="bold" text-decoration="none" x="407.24462890625" y="107.5">Choose the model</text></g></g><g transform="translate(-6,-6) scale(1,1)"><path fill="#C0C0C0" stroke="none" d="M 393 175 L 557 175 Q 567 175 567 185 L 567 205 Q 567 215 557 215 L 393 215 Q 383 215 383 205 L 383 185 Q 383 175 393 175 Z" opacity="0.2"/></g><g transform="translate(-6,-6) scale(1,1)"><path fill="#ffffff" stroke="none" d="M 386 168 L 550 168 Q 560 168 560 178 L 560 198 Q 560 208 550 208 L 386 208 Q 376 208 376 198 L 376 178 Q 376 168 386 168 Z"/></g><g transform="translate(-6,-6) scale(1,1)"><path fill="none" stroke="#000000" d="M 386 168 L 550 168 Q 560 168 560 178 L 560 198 Q 560 208 550 208 L 386 208 Q 376 208 376 198 L 376 178 Q 376 168 386 168 Z" stroke-miterlimit="10"/></g><g transform="translate(-6,-6) scale(1,1)"><g><path fill="none" stroke="none"/><text fill="#000000" stroke="none" font-family="Arial" font-size="13px" font-style="normal" font-weight="bold" text-decoration="none" x="391.767822265625" y="187.5">Display model introduction</text></g></g><g transform="translate(-6,-6) scale(1,1)"><path fill="none" stroke="#000000" d="M 457 48 L 457 88" stroke-miterlimit="10"/></g><g transform="translate(-6,-6) scale(1,1)"><path fill="none" stroke="#000000" d="M 452.790482243984 77.83732514237585 L 457 88 L 461.209517756016 77.83732514237585" stroke-miterlimit="10"/></g><g transform="translate(-6,-6) scale(1,1)"><path fill="none" stroke="#000000" d="M 461 128 L 461 168" stroke-miterlimit="10"/></g><g transform="translate(-6,-6) scale(1,1)"><path fill="none" stroke="#000000" d="M 456.790482243984 157.83732514237585 L 461 168 L 465.209517756016 157.83732514237585" stroke-miterlimit="10"/></g><g transform="translate(-6,-6) scale(1,1)"><path fill="#C0C0C0" stroke="none" d="M 439 279.5 L 471.5 263 L 503 279.5 L 471.5 295 L 439 279.5" opacity="0.2"/></g><g transform="translate(-6,-6) scale(1,1)"><path fill="#ffffff" stroke="none" d="M 432 272 L 464 256 L 496 272 L 464 288 L 432 272"/></g><g transform="translate(-6,-6) scale(1,1)"><path fill="none" stroke="#000000" d="M 432 272 L 464 256 L 496 272 L 464 288 L 432 272 L 432 272" stroke-miterlimit="10"/></g><g transform="translate(-6,-6) scale(1,1)"><path fill="none" stroke="#000000" d="M 464 208 L 464 256" stroke-miterlimit="10"/></g><g transform="translate(-6,-6) scale(1,1)"><path fill="none" stroke="#000000" d="M 459.790482243984 245.83732514237585 L 464 256 L 468.209517756016 245.83732514237585" stroke-miterlimit="10"/></g><g transform="translate(-6,-6) scale(1,1)"><path fill="#C0C0C0" stroke="none" d="M 225 335 L 325 335 Q 335 335 335 345 L 335 378 Q 335 388 325 388 L 225 388 Q 215 388 215 378 L 215 345 Q 215 335 225 335 Z" opacity="0.2"/></g><g transform="translate(-6,-6) scale(1,1)"><path fill="#ffffff" stroke="none" d="M 218 328 L 318 328 Q 328 328 328 338 L 328 371 Q 328 381 318 381 L 218 381 Q 208 381 208 371 L 208 338 Q 208 328 218 328 Z"/></g><g transform="translate(-6,-6) scale(1,1)"><path fill="none" stroke="#000000" d="M 218 328 L 318 328 Q 328 328 328 338 L 328 371 Q 328 381 318 381 L 218 381 Q 208 381 208 371 L 208 338 Q 208 328 218 328 Z" stroke-miterlimit="10"/></g><g transform="translate(-6,-6) scale(1,1)"><g><path fill="none" stroke="none"/><text fill="#000000" stroke="none" font-family="Arial" font-size="13px" font-style="normal" font-weight="bold" text-decoration="none" x="236.57275390625" y="347.5">Display file</text><text fill="#000000" stroke="none" font-family="Arial" font-size="13px" font-style="normal" font-weight="bold" text-decoration="none" x="242.345947265625" y="360.5">selection</text></g></g><g transform="translate(-6,-6) scale(1,1)"><path fill="none" stroke="#000000" d="M 432 272 L 264 272 L 264 328" stroke-miterlimit="10"/></g><g transform="translate(-6,-6) scale(1,1)"><path fill="none" stroke="#000000" d="M 259.790482243984 317.83732514237585 L 264 328 L 268.209517756016 317.83732514237585" stroke-miterlimit="10"/></g><g transform="translate(-6,-6) scale(1,1)"><g><path fill="none" stroke="none"/><text fill="#000000" stroke="none" font-family="Arial" font-size="13px" font-style="normal" font-weight="normal" text-decoration="none" x="272.79638671875" y="291.5">Model is</text><text fill="#000000" stroke="none" font-family="Arial" font-size="13px" font-style="normal" font-weight="normal" text-decoration="none" x="269.19091796875" y="304.5">TSI_CNN</text></g></g><g transform="translate(-6,-6) scale(1,1)"><path fill="#C0C0C0" stroke="none" d="M 561 431 L 661 431 Q 671 431 671 441 L 671 474 Q 671 484 661 484 L 561 484 Q 551 484 551 474 L 551 441 Q 551 431 561 431 Z" opacity="0.2"/></g><g transform="translate(-6,-6) scale(1,1)"><path fill="#ffffff" stroke="none" d="M 554 424 L 654 424 Q 664 424 664 434 L 664 467 Q 664 477 654 477 L 554 477 Q 544 477 544 467 L 544 434 Q 544 424 554 424 Z"/></g><g transform="translate(-6,-6) scale(1,1)"><path fill="none" stroke="#000000" d="M 554 424 L 654 424 Q 664 424 664 434 L 664 467 Q 664 477 654 477 L 554 477 Q 544 477 544 467 L 544 434 Q 544 424 554 424 Z" stroke-miterlimit="10"/></g><g transform="translate(-6,-6) scale(1,1)"><g><path fill="none" stroke="none"/><text fill="#000000" stroke="none" font-family="Arial" font-size="13px" font-style="normal" font-weight="bold" text-decoration="none" x="559.195068359375" y="443.5">Diaplay dataset</text><text fill="#000000" stroke="none" font-family="Arial" font-size="13px" font-style="normal" font-weight="bold" text-decoration="none" x="578.345947265625" y="456.5">selection</text></g></g><g transform="translate(-6,-6) scale(1,1)"><path fill="none" stroke="#000000" d="M 496 272 L 612 272 L 612 424" stroke-miterlimit="10"/></g><g transform="translate(-6,-6) scale(1,1)"><path fill="none" stroke="#000000" d="M 607.790482243984 413.83732514237585 L 612 424 L 616.209517756016 413.83732514237585" stroke-miterlimit="10"/></g><g transform="translate(-6,-6) scale(1,1)"><g><path fill="none" stroke="none"/><text fill="#000000" stroke="none" font-family="Arial" font-size="13px" font-style="normal" font-weight="normal" text-decoration="none" x="533.95458984375" y="291.5">Model is not</text><text fill="#000000" stroke="none" font-family="Arial" font-size="13px" font-style="normal" font-weight="normal" text-decoration="none" x="541.19091796875" y="304.5">TSI_CNN</text></g></g><g transform="translate(-6,-6) scale(1,1)"><path fill="#C0C0C0" stroke="none" d="M 138 439 L 492 439 Q 495 439 495 442 L 495 441 Q 495 444 492 444 L 138 444 Q 135 444 135 441 L 135 442 Q 135 439 138 439 Z" opacity="0.2"/></g><g transform="translate(-6,-6) scale(1,1)"><path fill="#000000" stroke="none" d="M 131 432 L 485 432 Q 488 432 488 435 L 488 435 Q 488 438 485 438 L 131 438 Q 128 438 128 435 L 128 435 Q 128 432 131 432 Z"/></g><g transform="translate(-6,-6) scale(1,1)"><path fill="none" stroke="#000000" d="M 266 381 L 266 432" stroke-miterlimit="10"/></g><g transform="translate(-6,-6) scale(1,1)"><path fill="none" stroke="#000000" d="M 261.790482243984 421.83732514237585 L 266 432 L 270.209517756016 421.83732514237585" stroke-miterlimit="10"/></g><g transform="translate(-6,-6) scale(1,1)"><path fill="#C0C0C0" stroke="none" d="M 153 503 L 237 503 Q 247 503 247 513 L 247 548 Q 247 558 237 558 L 153 558 Q 143 558 143 548 L 143 513 Q 143 503 153 503 Z" opacity="0.2"/></g><g transform="translate(-6,-6) scale(1,1)"><path fill="#ffffff" stroke="none" d="M 146 496 L 230 496 Q 240 496 240 506 L 240 541 Q 240 551 230 551 L 146 551 Q 136 551 136 541 L 136 506 Q 136 496 146 496 Z"/></g><g transform="translate(-6,-6) scale(1,1)"><path fill="none" stroke="#000000" d="M 146 496 L 230 496 Q 240 496 240 506 L 240 541 Q 240 551 230 551 L 146 551 Q 136 551 136 541 L 136 506 Q 136 496 146 496 Z" stroke-miterlimit="10"/></g><g transform="translate(-6,-6) scale(1,1)"><g><path fill="none" stroke="none"/><text fill="#000000" stroke="none" font-family="Arial" font-size="13px" font-style="normal" font-weight="bold" text-decoration="none" x="144.27099609375" y="515.5">Choose upload</text><text fill="#000000" stroke="none" font-family="Arial" font-size="13px" font-style="normal" font-weight="bold" text-decoration="none" x="165.234130859375" y="528.5">data file</text></g></g><g transform="translate(-6,-6) scale(1,1)"><path fill="#C0C0C0" stroke="none" d="M 145 591 L 244 591 Q 254 591 254 601 L 254 621 Q 254 631 244 631 L 145 631 Q 135 631 135 621 L 135 601 Q 135 591 145 591 Z" opacity="0.2"/></g><g transform="translate(-6,-6) scale(1,1)"><path fill="#ffffff" stroke="none" d="M 138 584 L 237 584 Q 247 584 247 594 L 247 614 Q 247 624 237 624 L 138 624 Q 128 624 128 614 L 128 594 Q 128 584 138 584 Z"/></g><g transform="translate(-6,-6) scale(1,1)"><path fill="none" stroke="#000000" d="M 138 584 L 237 584 Q 247 584 247 594 L 247 614 Q 247 624 237 624 L 138 624 Q 128 624 128 614 L 128 594 Q 128 584 138 584 Z" stroke-miterlimit="10"/></g><g transform="translate(-6,-6) scale(1,1)"><g><path fill="none" stroke="none"/><text fill="#000000" stroke="none" font-family="Arial" font-size="13px" font-style="normal" font-weight="bold" text-decoration="none" x="139.806884765625" y="603.5">Choose local file</text></g></g><g transform="translate(-6,-6) scale(1,1)"><path fill="#C0C0C0" stroke="none" d="M 167 687.5 L 195.5 671 L 223 687.5 L 195.5 703 L 167 687.5" opacity="0.2"/></g><g transform="translate(-6,-6) scale(1,1)"><path fill="#ffffff" stroke="none" d="M 160 680 L 188 664 L 216 680 L 188 696 L 160 680"/></g><g transform="translate(-6,-6) scale(1,1)"><path fill="none" stroke="#000000" d="M 160 680 L 188 664 L 216 680 L 188 696 L 160 680 L 160 680" stroke-miterlimit="10"/></g><g transform="translate(-6,-6) scale(1,1)"><path fill="none" stroke="#000000" d="M 184 437 L 184 496" stroke-miterlimit="10"/></g><g transform="translate(-6,-6) scale(1,1)"><path fill="none" stroke="#000000" d="M 179.790482243984 485.83732514237585 L 184 496 L 188.209517756016 485.83732514237585" stroke-miterlimit="10"/></g><g transform="translate(-6,-6) scale(1,1)"><path fill="none" stroke="#000000" d="M 188 551 L 188 584" stroke-miterlimit="10"/></g><g transform="translate(-6,-6) scale(1,1)"><path fill="none" stroke="#000000" d="M 183.790482243984 573.8373251423759 L 188 584 L 192.209517756016 573.8373251423759" stroke-miterlimit="10"/></g><g transform="translate(-6,-6) scale(1,1)"><path fill="none" stroke="#000000" d="M 187 624 L 187 664" stroke-miterlimit="10"/></g><g transform="translate(-6,-6) scale(1,1)"><path fill="none" stroke="#000000" d="M 182.790482243984 653.8373251423759 L 187 664 L 191.209517756016 653.8373251423759" stroke-miterlimit="10"/></g><g transform="translate(-6,-6) scale(1,1)"><path fill="#C0C0C0" stroke="none" d="M 73 735 L 171.8525390625 735 Q 181.8525390625 735 181.8525390625 745 L 181.8525390625 765 Q 181.8525390625 775 171.8525390625 775 L 73 775 Q 63 775 63 765 L 63 745 Q 63 735 73 735 Z" opacity="0.2"/></g><g transform="translate(-6,-6) scale(1,1)"><path fill="#ffffff" stroke="none" d="M 66 728 L 164.8525390625 728 Q 174.8525390625 728 174.8525390625 738 L 174.8525390625 758 Q 174.8525390625 768 164.8525390625 768 L 66 768 Q 56 768 56 758 L 56 738 Q 56 728 66 728 Z"/></g><g transform="translate(-6,-6) scale(1,1)"><path fill="none" stroke="#000000" d="M 66 728 L 164.8525390625 728 Q 174.8525390625 728 174.8525390625 738 L 174.8525390625 758 Q 174.8525390625 768 164.8525390625 768 L 66 768 Q 56 768 56 758 L 56 738 Q 56 728 66 728 Z" stroke-miterlimit="10"/></g><g transform="translate(-6,-6) scale(1,1)"><g><path fill="none" stroke="none"/><text fill="#000000" stroke="none" font-family="Arial" font-size="13px" font-style="normal" font-weight="bold" text-decoration="none" x="63.765869140625" y="747.5">Message success</text></g></g><g transform="translate(-6,-6) scale(1,1)"><path fill="#C0C0C0" stroke="none" d="M 249 734 L 326.8798828125 734 Q 336.8798828125 734 336.8798828125 744 L 336.8798828125 764 Q 336.8798828125 774 326.8798828125 774 L 249 774 Q 239 774 239 764 L 239 744 Q 239 734 249 734 Z" opacity="0.2"/></g><g transform="translate(-6,-6) scale(1,1)"><path fill="#ffffff" stroke="none" d="M 242 727 L 319.8798828125 727 Q 329.8798828125 727 329.8798828125 737 L 329.8798828125 757 Q 329.8798828125 767 319.8798828125 767 L 242 767 Q 232 767 232 757 L 232 737 Q 232 727 242 727 Z"/></g><g transform="translate(-6,-6) scale(1,1)"><path fill="none" stroke="#000000" d="M 242 727 L 319.8798828125 727 Q 329.8798828125 727 329.8798828125 737 L 329.8798828125 757 Q 329.8798828125 767 319.8798828125 767 L 242 767 Q 232 767 232 757 L 232 737 Q 232 727 242 727 Z" stroke-miterlimit="10"/></g><g transform="translate(-6,-6) scale(1,1)"><g><path fill="none" stroke="none"/><text fill="#000000" stroke="none" font-family="Arial" font-size="13px" font-style="normal" font-weight="bold" text-decoration="none" x="239.035888671875" y="746.5">Message error</text></g></g><g transform="translate(-6,-6) scale(1,1)"><path fill="none" stroke="#000000" d="M 160 680 L 104 680 L 104 728" stroke-miterlimit="10"/></g><g transform="translate(-6,-6) scale(1,1)"><path fill="none" stroke="#000000" d="M 99.79048224398402 717.8373251423759 L 104 728 L 108.20951775601598 717.8373251423759" stroke-miterlimit="10"/></g><g transform="translate(-6,-6) scale(1,1)"><g><path fill="none" stroke="none"/><text fill="#000000" stroke="none" font-family="Arial" font-size="13px" font-style="normal" font-weight="normal" text-decoration="none" x="108.055908203125" y="698.5">Format</text><text fill="#000000" stroke="none" font-family="Arial" font-size="13px" font-style="normal" font-weight="normal" text-decoration="none" x="112.391357421875" y="711.5">is csv</text></g></g><g transform="translate(-6,-6) scale(1,1)"><path fill="none" stroke="#000000" d="M 216 680 L 280 680 L 280 727" stroke-miterlimit="10"/></g><g transform="translate(-6,-6) scale(1,1)"><path fill="none" stroke="#000000" d="M 275.790482243984 716.8373251423759 L 280 727 L 284.209517756016 716.8373251423759" stroke-miterlimit="10"/></g><g transform="translate(-6,-6) scale(1,1)"><g><path fill="none" stroke="none"/><text fill="#000000" stroke="none" font-family="Arial" font-size="13px" font-style="normal" font-weight="normal" text-decoration="none" x="219.91455078125" y="698.5">Format is</text><text fill="#000000" stroke="none" font-family="Arial" font-size="13px" font-style="normal" font-weight="normal" text-decoration="none" x="226.408203125" y="711.5">not csv</text></g></g><g transform="translate(-6,-6) scale(1,1)"><path fill="none" stroke="#000000" d="M 96 768 L 96 816 L 40 816 L 40 296 L 264 296 L 264 328" stroke-miterlimit="10"/></g><g transform="translate(-6,-6) scale(1,1)"><path fill="none" stroke="#000000" d="M 259.790482243984 317.83732514237585 L 264 328 L 268.209517756016 317.83732514237585" stroke-miterlimit="10"/></g><g transform="translate(-6,-6) scale(1,1)"><path fill="none" stroke="#000000" d="M 272 767 L 272 840 L 16 840 L 16 400 L 264 400 L 264 432" stroke-miterlimit="10"/></g><g transform="translate(-6,-6) scale(1,1)"><path fill="none" stroke="#000000" d="M 259.790482243984 421.83732514237585 L 264 432 L 268.209517756016 421.83732514237585" stroke-miterlimit="10"/></g><g transform="translate(-6,-6) scale(1,1)"><path fill="#C0C0C0" stroke="none" d="M 393 503 L 482.4072265625 503 Q 492.4072265625 503 492.4072265625 513 L 492.4072265625 540 Q 492.4072265625 550 482.4072265625 550 L 393 550 Q 383 550 383 540 L 383 513 Q 383 503 393 503 Z" opacity="0.2"/></g><g transform="translate(-6,-6) scale(1,1)"><path fill="#ffffff" stroke="none" d="M 386 496 L 475.4072265625 496 Q 485.4072265625 496 485.4072265625 506 L 485.4072265625 533 Q 485.4072265625 543 475.4072265625 543 L 386 543 Q 376 543 376 533 L 376 506 Q 376 496 386 496 Z"/></g><g transform="translate(-6,-6) scale(1,1)"><path fill="none" stroke="#000000" d="M 386 496 L 475.4072265625 496 Q 485.4072265625 496 485.4072265625 506 L 485.4072265625 533 Q 485.4072265625 543 475.4072265625 543 L 386 543 Q 376 543 376 533 L 376 506 Q 376 496 386 496 Z" stroke-miterlimit="10"/></g><g transform="translate(-6,-6) scale(1,1)"><g><path fill="none" stroke="none"/><text fill="#000000" stroke="none" font-family="Arial" font-size="13px" font-style="normal" font-weight="bold" text-decoration="none" x="383.727783203125" y="515.5">Choose data file</text></g></g><g transform="translate(-6,-6) scale(1,1)"><path fill="#C0C0C0" stroke="none" d="M 393 583 L 493 583 Q 503 583 503 593 L 503 626 Q 503 636 493 636 L 393 636 Q 383 636 383 626 L 383 593 Q 383 583 393 583 Z" opacity="0.2"/></g><g transform="translate(-6,-6) scale(1,1)"><path fill="#ffffff" stroke="none" d="M 386 576 L 486 576 Q 496 576 496 586 L 496 619 Q 496 629 486 629 L 386 629 Q 376 629 376 619 L 376 586 Q 376 576 386 576 Z"/></g><g transform="translate(-6,-6) scale(1,1)"><path fill="none" stroke="#000000" d="M 386 576 L 486 576 Q 496 576 496 586 L 496 619 Q 496 629 486 629 L 386 629 Q 376 629 376 619 L 376 586 Q 376 576 386 576 Z" stroke-miterlimit="10"/></g><g transform="translate(-6,-6) scale(1,1)"><g><path fill="none" stroke="none"/><text fill="#000000" stroke="none" font-family="Arial" font-size="13px" font-style="normal" font-weight="bold" text-decoration="none" x="392.286865234375" y="595.5">Display section</text><text fill="#000000" stroke="none" font-family="Arial" font-size="13px" font-style="normal" font-weight="bold" text-decoration="none" x="410.345947265625" y="608.5">selection</text></g></g><g transform="translate(-6,-6) scale(1,1)"><path fill="none" stroke="#000000" d="M 432 437 L 432 496" stroke-miterlimit="10"/></g><g transform="translate(-6,-6) scale(1,1)"><path fill="none" stroke="#000000" d="M 427.790482243984 485.83732514237585 L 432 496 L 436.209517756016 485.83732514237585" stroke-miterlimit="10"/></g><g transform="translate(-6,-6) scale(1,1)"><path fill="none" stroke="#000000" d="M 432 543 L 432 576" stroke-miterlimit="10"/></g><g transform="translate(-6,-6) scale(1,1)"><path fill="none" stroke="#000000" d="M 427.790482243984 565.8373251423759 L 432 576 L 436.209517756016 565.8373251423759" stroke-miterlimit="10"/></g><g transform="translate(-6,-6) scale(1,1)"><path fill="#C0C0C0" stroke="none" d="M 401 687 L 493 687 Q 503 687 503 697 L 503 730 Q 503 740 493 740 L 401 740 Q 391 740 391 730 L 391 697 Q 391 687 401 687 Z" opacity="0.2"/></g><g transform="translate(-6,-6) scale(1,1)"><path fill="#ffffff" stroke="none" d="M 394 680 L 486 680 Q 496 680 496 690 L 496 723 Q 496 733 486 733 L 394 733 Q 384 733 384 723 L 384 690 Q 384 680 394 680 Z"/></g><g transform="translate(-6,-6) scale(1,1)"><path fill="none" stroke="#000000" d="M 394 680 L 486 680 Q 496 680 496 690 L 496 723 Q 496 733 486 733 L 394 733 Q 384 733 384 723 L 384 690 Q 384 680 394 680 Z" stroke-miterlimit="10"/></g><g transform="translate(-6,-6) scale(1,1)"><g><path fill="none" stroke="none"/><text fill="#000000" stroke="none" font-family="Arial" font-size="13px" font-style="normal" font-weight="bold" text-decoration="none" x="399.52734375" y="699.5">Input selected</text><text fill="#000000" stroke="none" font-family="Arial" font-size="13px" font-style="normal" font-weight="bold" text-decoration="none" x="419.405029296875" y="712.5">section</text></g></g><g transform="translate(-6,-6) scale(1,1)"><path fill="none" stroke="#000000" d="M 437 629 L 437 680" stroke-miterlimit="10"/></g><g transform="translate(-6,-6) scale(1,1)"><path fill="none" stroke="#000000" d="M 432.790482243984 669.8373251423759 L 437 680 L 441.209517756016 669.8373251423759" stroke-miterlimit="10"/></g><g transform="translate(-6,-6) scale(1,1)"><path fill="#C0C0C0" stroke="none" d="M 457 847 L 580 847 Q 590 847 590 857 L 590 884 Q 590 894 580 894 L 457 894 Q 447 894 447 884 L 447 857 Q 447 847 457 847 Z" opacity="0.2"/></g><g transform="translate(-6,-6) scale(1,1)"><path fill="#ffffff" stroke="none" d="M 450 840 L 573 840 Q 583 840 583 850 L 583 877 Q 583 887 573 887 L 450 887 Q 440 887 440 877 L 440 850 Q 440 840 450 840 Z"/></g><g transform="translate(-6,-6) scale(1,1)"><path fill="none" stroke="#000000" d="M 450 840 L 573 840 Q 583 840 583 850 L 583 877 Q 583 887 573 887 L 450 887 Q 440 887 440 877 L 440 850 Q 440 840 450 840 Z" stroke-miterlimit="10"/></g><g transform="translate(-6,-6) scale(1,1)"><g><path fill="none" stroke="none"/><text fill="#000000" stroke="none" font-family="Arial" font-size="13px" font-style="normal" font-weight="bold" text-decoration="none" x="456.589599609375" y="859.5">Click submit button</text></g></g><g transform="translate(-6,-6) scale(1,1)"><path fill="#C0C0C0" stroke="none" d="M 569 639 L 676 639 Q 686 639 686 649 L 686 676 Q 686 686 676 686 L 569 686 Q 559 686 559 676 L 559 649 Q 559 639 569 639 Z" opacity="0.2"/></g><g transform="translate(-6,-6) scale(1,1)"><path fill="#ffffff" stroke="none" d="M 562 632 L 669 632 Q 679 632 679 642 L 679 669 Q 679 679 669 679 L 562 679 Q 552 679 552 669 L 552 642 Q 552 632 562 632 Z"/></g><g transform="translate(-6,-6) scale(1,1)"><path fill="none" stroke="#000000" d="M 562 632 L 669 632 Q 679 632 679 642 L 679 669 Q 679 679 669 679 L 562 679 Q 552 679 552 669 L 552 642 Q 552 632 562 632 Z" stroke-miterlimit="10"/></g><g transform="translate(-6,-6) scale(1,1)"><g><path fill="none" stroke="none"/><text fill="#000000" stroke="none" font-family="Arial" font-size="13px" font-style="normal" font-weight="bold" text-decoration="none" x="569.96826171875" y="651.5">Choose dataset</text></g></g><g transform="translate(-6,-6) scale(1,1)"><path fill="none" stroke="#000000" d="M 606 477 L 606 632" stroke-miterlimit="10"/></g><g transform="translate(-6,-6) scale(1,1)"><path fill="none" stroke="#000000" d="M 601.790482243984 621.8373251423759 L 606 632 L 610.209517756016 621.8373251423759" stroke-miterlimit="10"/></g><g transform="translate(-6,-6) scale(1,1)"><path fill="#C0C0C0" stroke="none" d="M 487 791.5 L 519.5 775 L 551 791.5 L 519.5 807 L 487 791.5" opacity="0.2"/></g><g transform="translate(-6,-6) scale(1,1)"><path fill="#ffffff" stroke="none" d="M 480 784 L 512 768 L 544 784 L 512 800 L 480 784"/></g><g transform="translate(-6,-6) scale(1,1)"><path fill="none" stroke="#000000" d="M 480 784 L 512 768 L 544 784 L 512 800 L 480 784 L 480 784" stroke-miterlimit="10"/></g><g transform="translate(-6,-6) scale(1,1)"><path fill="none" stroke="#000000" d="M 432 733 L 432 784 L 480 784" stroke-miterlimit="10"/></g><g transform="translate(-6,-6) scale(1,1)"><path fill="none" stroke="#000000" d="M 469.83732514237585 788.209517756016 L 480 784 L 469.83732514237585 779.790482243984" stroke-miterlimit="10"/></g><g transform="translate(-6,-6) scale(1,1)"><path fill="none" stroke="#000000" d="M 616 679 L 616 784 L 544 784" stroke-miterlimit="10"/></g><g transform="translate(-6,-6) scale(1,1)"><path fill="none" stroke="#000000" d="M 554.1626748576241 779.790482243984 L 544 784 L 554.1626748576241 788.209517756016" stroke-miterlimit="10"/></g><g transform="translate(-6,-6) scale(1,1)"><path fill="none" stroke="#000000" d="M 513 800 L 513 840" stroke-miterlimit="10"/></g><g transform="translate(-6,-6) scale(1,1)"><path fill="none" stroke="#000000" d="M 508.790482243984 829.8373251423759 L 513 840 L 517.209517756016 829.8373251423759" stroke-miterlimit="10"/></g><g transform="translate(-6,-6) scale(1,1)"><path fill="#C0C0C0" stroke="none" d="M 449 935 L 589.0107421875 935 Q 599.0107421875 935 599.0107421875 945 L 599.0107421875 965 Q 599.0107421875 975 589.0107421875 975 L 449 975 Q 439 975 439 965 L 439 945 Q 439 935 449 935 Z" opacity="0.2"/></g><g transform="translate(-6,-6) scale(1,1)"><path fill="#ffffff" stroke="none" d="M 442 928 L 582.0107421875 928 Q 592.0107421875 928 592.0107421875 938 L 592.0107421875 958 Q 592.0107421875 968 582.0107421875 968 L 442 968 Q 432 968 432 958 L 432 938 Q 432 928 442 928 Z"/></g><g transform="translate(-6,-6) scale(1,1)"><path fill="none" stroke="#000000" d="M 442 928 L 582.0107421875 928 Q 592.0107421875 928 592.0107421875 938 L 592.0107421875 958 Q 592.0107421875 968 582.0107421875 968 L 442 968 Q 432 968 432 958 L 432 938 Q 432 928 442 928 Z" stroke-miterlimit="10"/></g><g transform="translate(-6,-6) scale(1,1)"><g><path fill="none" stroke="none"/><text fill="#000000" stroke="none" font-family="Arial" font-size="13px" font-style="normal" font-weight="bold" text-decoration="none" x="441.911376953125" y="947.5">Check selection validate</text></g></g><g transform="translate(-6,-6) scale(1,1)"><path fill="#C0C0C0" stroke="none" d="M 487 1039.5 L 519.5 1023 L 551 1039.5 L 519.5 1055 L 487 1039.5" opacity="0.2"/></g><g transform="translate(-6,-6) scale(1,1)"><path fill="#ffffff" stroke="none" d="M 480 1032 L 512 1016 L 544 1032 L 512 1048 L 480 1032"/></g><g transform="translate(-6,-6) scale(1,1)"><path fill="none" stroke="#000000" d="M 480 1032 L 512 1016 L 544 1032 L 512 1048 L 480 1032 L 480 1032" stroke-miterlimit="10"/></g><g transform="translate(-6,-6) scale(1,1)"><path fill="none" stroke="#000000" d="M 511 888 L 512 927" stroke-miterlimit="10"/></g><g transform="translate(-6,-6) scale(1,1)"><path fill="none" stroke="#000000" d="M 507.5313695737947 916.9485651713802 L 512 927 L 515.9476388509854 916.732763395042" stroke-miterlimit="10"/></g><g transform="translate(-6,-6) scale(1,1)"><path fill="none" stroke="#000000" d="M 512 969 L 512 1015" stroke-miterlimit="10"/></g><g transform="translate(-6,-6) scale(1,1)"><path fill="none" stroke="#000000" d="M 507.790482243984 1004.8373251423759 L 512 1015 L 516.209517756016 1004.8373251423759" stroke-miterlimit="10"/></g><g transform="translate(-6,-6) scale(1,1)"><path fill="#C0C0C0" stroke="none" d="M 169 1023 L 300 1023 Q 310 1023 310 1033 L 310 1053 Q 310 1063 300 1063 L 169 1063 Q 159 1063 159 1053 L 159 1033 Q 159 1023 169 1023 Z" opacity="0.2"/></g><g transform="translate(-6,-6) scale(1,1)"><path fill="#ffffff" stroke="none" d="M 162 1016 L 293 1016 Q 303 1016 303 1026 L 303 1046 Q 303 1056 293 1056 L 162 1056 Q 152 1056 152 1046 L 152 1026 Q 152 1016 162 1016 Z"/></g><g transform="translate(-6,-6) scale(1,1)"><path fill="none" stroke="#000000" d="M 162 1016 L 293 1016 Q 303 1016 303 1026 L 303 1046 Q 303 1056 293 1056 L 162 1056 Q 152 1056 152 1046 L 152 1026 Q 152 1016 162 1016 Z" stroke-miterlimit="10"/></g><g transform="translate(-6,-6) scale(1,1)"><g><path fill="none" stroke="none"/><text fill="#000000" stroke="none" font-family="Arial" font-size="13px" font-style="normal" font-weight="bold" text-decoration="none" x="181.615966796875" y="1035.5">Make prediction</text></g></g><g transform="translate(-6,-6) scale(1,1)"><path fill="none" stroke="#000000" d="M 480 1032 L 303 1032" stroke-miterlimit="10"/></g><g transform="translate(-6,-6) scale(1,1)"><path fill="none" stroke="#000000" d="M 313.16267485762415 1027.7904822439841 L 303 1032 L 313.16267485762415 1036.2095177560159" stroke-miterlimit="10"/></g><g transform="translate(-6,-6) scale(1,1)"><g><path fill="none" stroke="none"/><text fill="#000000" stroke="none" font-family="Arial" font-size="13px" font-style="normal" font-weight="normal" text-decoration="none" x="345.050537109375" y="1051.5">Selection validate</text></g></g><g transform="translate(-6,-6) scale(1,1)"><path fill="#C0C0C0" stroke="none" d="M 473 1127 L 564 1127 Q 574 1127 574 1137 L 574 1157 Q 574 1167 564 1167 L 473 1167 Q 463 1167 463 1157 L 463 1137 Q 463 1127 473 1127 Z" opacity="0.2"/></g><g transform="translate(-6,-6) scale(1,1)"><path fill="#ffffff" stroke="none" d="M 466 1120 L 557 1120 Q 567 1120 567 1130 L 567 1150 Q 567 1160 557 1160 L 466 1160 Q 456 1160 456 1150 L 456 1130 Q 456 1120 466 1120 Z"/></g><g transform="translate(-6,-6) scale(1,1)"><path fill="none" stroke="#000000" d="M 466 1120 L 557 1120 Q 567 1120 567 1130 L 567 1150 Q 567 1160 557 1160 L 466 1160 Q 456 1160 456 1150 L 456 1130 Q 456 1120 466 1120 Z" stroke-miterlimit="10"/></g><g transform="translate(-6,-6) scale(1,1)"><g><path fill="none" stroke="none"/><text fill="#000000" stroke="none" font-family="Arial" font-size="13px" font-style="normal" font-weight="bold" text-decoration="none" x="469.595947265625" y="1139.5">Message error</text></g></g><g transform="translate(-6,-6) scale(1,1)"><path fill="none" stroke="#000000" d="M 513 1048 L 513 1120" stroke-miterlimit="10"/></g><g transform="translate(-6,-6) scale(1,1)"><path fill="none" stroke="#000000" d="M 508.790482243984 1109.837325142376 L 513 1120 L 517.209517756016 1109.837325142376" stroke-miterlimit="10"/></g><g transform="translate(-6,-6) scale(1,1)"><g><path fill="none" stroke="none"/><text fill="#000000" stroke="none" font-family="Arial" font-size="13px" font-style="normal" font-weight="normal" text-decoration="none" x="521.760498046875" y="1078.5">Selection</text><text fill="#000000" stroke="none" font-family="Arial" font-size="13px" font-style="normal" font-weight="normal" text-decoration="none" x="518.865966796875" y="1091.5">unvalidate</text></g></g><g transform="translate(-6,-6) scale(1,1)"><path fill="#C0C0C0" stroke="none" d="M 185 1103 L 277 1103 Q 287 1103 287 1113 L 287 1146 Q 287 1156 277 1156 L 185 1156 Q 175 1156 175 1146 L 175 1113 Q 175 1103 185 1103 Z" opacity="0.2"/></g><g transform="translate(-6,-6) scale(1,1)"><path fill="#ffffff" stroke="none" d="M 178 1096 L 270 1096 Q 280 1096 280 1106 L 280 1139 Q 280 1149 270 1149 L 178 1149 Q 168 1149 168 1139 L 168 1106 Q 168 1096 178 1096 Z"/></g><g transform="translate(-6,-6) scale(1,1)"><path fill="none" stroke="#000000" d="M 178 1096 L 270 1096 Q 280 1096 280 1106 L 280 1139 Q 280 1149 270 1149 L 178 1149 Q 168 1149 168 1139 L 168 1106 Q 168 1096 178 1096 Z" stroke-miterlimit="10"/></g><g transform="translate(-6,-6) scale(1,1)"><g><path fill="none" stroke="none"/><text fill="#000000" stroke="none" font-family="Arial" font-size="13px" font-style="normal" font-weight="bold" text-decoration="none" x="183.885986328125" y="1115.5">Set table data</text><text fill="#000000" stroke="none" font-family="Arial" font-size="13px" font-style="normal" font-weight="bold" text-decoration="none" x="182.44189453125" y="1128.5">and chart data</text></g></g><g transform="translate(-6,-6) scale(1,1)"><path fill="#C0C0C0" stroke="none" d="M 161 1199 L 293 1199 Q 303 1199 303 1209 L 303 1242 Q 303 1252 293 1252 L 161 1252 Q 151 1252 151 1242 L 151 1209 Q 151 1199 161 1199 Z" opacity="0.2"/></g><g transform="translate(-6,-6) scale(1,1)"><path fill="#ffffff" stroke="none" d="M 154 1192 L 286 1192 Q 296 1192 296 1202 L 296 1235 Q 296 1245 286 1245 L 154 1245 Q 144 1245 144 1235 L 144 1202 Q 144 1192 154 1192 Z"/></g><g transform="translate(-6,-6) scale(1,1)"><path fill="none" stroke="#000000" d="M 154 1192 L 286 1192 Q 296 1192 296 1202 L 296 1235 Q 296 1245 286 1245 L 154 1245 Q 144 1245 144 1235 L 144 1202 Q 144 1192 154 1192 Z" stroke-miterlimit="10"/></g><g transform="translate(-6,-6) scale(1,1)"><g><path fill="none" stroke="none"/><text fill="#000000" stroke="none" font-family="Arial" font-size="13px" font-style="normal" font-weight="bold" text-decoration="none" x="168.6982421875" y="1211.5">Display prediction</text><text fill="#000000" stroke="none" font-family="Arial" font-size="13px" font-style="normal" font-weight="bold" text-decoration="none" x="164.727783203125" y="1224.5">result and statistics</text></g></g><g transform="translate(-6,-6) scale(1,1)"><path fill="none" stroke="#000000" d="M 226 1056 L 226 1096" stroke-miterlimit="10"/></g><g transform="translate(-6,-6) scale(1,1)"><path fill="none" stroke="#000000" d="M 221.790482243984 1085.837325142376 L 226 1096 L 230.209517756016 1085.837325142376" stroke-miterlimit="10"/></g><g transform="translate(-6,-6) scale(1,1)"><path fill="none" stroke="#000000" d="M 223 1149 L 223 1192" stroke-miterlimit="10"/></g><g transform="translate(-6,-6) scale(1,1)"><path fill="none" stroke="#000000" d="M 218.790482243984 1181.837325142376 L 223 1192 L 227.209517756016 1181.837325142376" stroke-miterlimit="10"/></g><g transform="translate(-6,-6) scale(1,1)"><path fill="#C0C0C0" stroke="none" d="M 487 1279.5 L 519.5 1263 L 551 1279.5 L 519.5 1295 L 487 1279.5" opacity="0.2"/></g><g transform="translate(-6,-6) scale(1,1)"><path fill="#ffffff" stroke="none" d="M 480 1272 L 512 1256 L 544 1272 L 512 1288 L 480 1272"/></g><g transform="translate(-6,-6) scale(1,1)"><path fill="none" stroke="#000000" d="M 480 1272 L 512 1256 L 544 1272 L 512 1288 L 480 1272 L 480 1272" stroke-miterlimit="10"/></g><g transform="translate(-6,-6) scale(1,1)"><path fill="none" stroke="#000000" d="M 220 1245 L 220 1272 L 480 1272" stroke-miterlimit="10"/></g><g transform="translate(-6,-6) scale(1,1)"><path fill="none" stroke="#000000" d="M 469.83732514237585 1276.2095177560159 L 480 1272 L 469.83732514237585 1267.7904822439841" stroke-miterlimit="10"/></g><g transform="translate(-6,-6) scale(1,1)"><path fill="none" stroke="#000000" d="M 511 1160 L 511 1256" stroke-miterlimit="10"/></g><g transform="translate(-6,-6) scale(1,1)"><path fill="none" stroke="#000000" d="M 506.790482243984 1245.837325142376 L 511 1256 L 515.209517756016 1245.837325142376" stroke-miterlimit="10"/></g><g transform="translate(-6,-6) scale(1,1)"><path fill="#C0C0C0" stroke="none" d="M 503 1359 C 503 1350.1634432 510.1634432 1343 519 1343 C 527.8365568 1343 535 1350.1634432 535 1359 C 535 1367.8365568 527.8365568 1375 519 1375 C 510.1634432 1375 503 1367.8365568 503 1359 Z" opacity="0.2"/></g><g transform="translate(-6,-6) scale(1,1)"><path fill="none" stroke="#000000" d="M 496 1352 C 496 1343.1634432 503.1634432 1336 512 1336 C 520.8365568 1336 528 1343.1634432 528 1352 C 528 1360.8365568 520.8365568 1368 512 1368 C 503.1634432 1368 496 1360.8365568 496 1352 Z" stroke-miterlimit="10"/></g><g transform="translate(-6,-6) scale(1,1)"><path fill="#000000" stroke="none" d="M 501 1352 C 501 1345.9248672 505.9248672 1341 512 1341 C 518.0751328 1341 523 1345.9248672 523 1352 C 523 1358.0751328 518.0751328 1363 512 1363 C 505.9248672 1363 501 1358.0751328 501 1352 Z"/></g><g transform="translate(-6,-6) scale(1,1)"><path fill="none" stroke="#000000" d="M 513 1288 L 513 1336" stroke-miterlimit="10"/></g><g transform="translate(-6,-6) scale(1,1)"><path fill="none" stroke="#000000" d="M 508.790482243984 1325.837325142376 L 513 1336 L 517.209517756016 1325.837325142376" stroke-miterlimit="10"/></g></g></svg>